<?xml version="1.0" encoding="UTF-8" standalone="no"?>
<!-- Created with Inkscape (http://www.inkscape.org/) -->

<svg
   xmlns:dc="http://purl.org/dc/elements/1.1/"
   xmlns:cc="http://creativecommons.org/ns#"
   xmlns:rdf="http://www.w3.org/1999/02/22-rdf-syntax-ns#"
   xmlns:svg="http://www.w3.org/2000/svg"
   xmlns="http://www.w3.org/2000/svg"
   xmlns:sodipodi="http://sodipodi.sourceforge.net/DTD/sodipodi-0.dtd"
   xmlns:inkscape="http://www.inkscape.org/namespaces/inkscape"
   version="1.1"
   id="svg2"
   xml:space="preserve"
   width="2160"
   height="472"
   viewBox="0 0 2160 472"
   sodipodi:docname="banner.svg"
   inkscape:export-filename="./images/banner.png"
   inkscape:export-xdpi="96"
   inkscape:export-ydpi="96"
   inkscape:version="0.92.1 r"><metadata
     id="metadata8"><rdf:RDF><cc:Work
         rdf:about=""><dc:format>image/svg+xml</dc:format><dc:type
           rdf:resource="http://purl.org/dc/dcmitype/StillImage" /><dc:title /></cc:Work></rdf:RDF></metadata><defs
     id="defs6"><clipPath
       clipPathUnits="userSpaceOnUse"
       id="clipPath62"><path
         d="M 0,792 H 612 V 0 H 0 Z"
         id="path60"
         inkscape:connector-curvature="0" /></clipPath></defs><sodipodi:namedview
     pagecolor="#8cdfff"
     bordercolor="#666666"
     borderopacity="1"
     objecttolerance="10"
     gridtolerance="10"
     guidetolerance="10"
     inkscape:pageopacity="1"
     inkscape:pageshadow="2"
     inkscape:window-width="1916"
     inkscape:window-height="1039"
     id="namedview4"
     showgrid="false"
     inkscape:zoom="0.51164216"
     inkscape:cx="1234.0588"
     inkscape:cy="-130.85432"
     inkscape:window-x="0"
     inkscape:window-y="18"
     inkscape:window-maximized="0"
     inkscape:current-layer="g10" /><g
     id="g10"
     inkscape:groupmode="layer"
     inkscape:label="Duck Patch"
     transform="matrix(1.3333333,0,0,-1.3333333,0,472)"><g
       id="g137"
       transform="translate(824.45658,-433.41495)"
       style="fill:#ffffff"><path
         inkscape:connector-curvature="0"
         id="path20"
         style="fill:#ffffff;fill-opacity:1;fill-rule:nonzero;stroke:none"
         d="m 179.75322,561.09424 c 0,-22.92 -23.057,-41.5 -51.5,-41.5 -28.443,0 -51.5,18.58 -51.5,41.5 0,22.92 23.057,41.5 51.5,41.5 28.443,0 51.5,-18.58 51.5,-41.5" /><path
         inkscape:connector-curvature="0"
         id="path22"
         style="fill:#ffffff;fill-opacity:1;fill-rule:nonzero;stroke:none"
         d="m 49.75322,524.09424 c 0,11.322 26.191,20.5 58.5,20.5 32.309,0 58.5,-9.178 58.5,-20.5 0,-11.322 -26.191,-20.5 -58.5,-20.5 -32.309,0 -58.5,9.178 -58.5,20.5" /><path
         inkscape:connector-curvature="0"
         id="path24"
         style="fill:#ffffff;fill-opacity:1;fill-rule:nonzero;stroke:none"
         d="m 216.75322,528.59424 c 0,-13.255 -12.536,-24 -28,-24 -15.464,0 -28,10.745 -28,24 0,13.255 12.536,24 28,24 15.464,0 28,-10.745 28,-24" /><path
         inkscape:connector-curvature="0"
         id="path26"
         style="fill:#ffffff;fill-opacity:1;fill-rule:nonzero;stroke:none"
         d="m 139.75322,563.59424 c 0,-18.778 24.625,-34 55,-34 30.376,0 55,15.222 55,34 0,18.778 -24.624,34 -55,34 -30.375,0 -55,-15.222 -55,-34" /><path
         inkscape:connector-curvature="0"
         id="path28"
         style="fill:#ffffff;fill-opacity:1;fill-rule:nonzero;stroke:none"
         d="m 296.75322,515.59424 c 0,-16.016 -14.327,-29 -32,-29 -17.673,0 -32,12.984 -32,29 0,16.016 14.327,29 32,29 17.673,0 32,-12.984 32,-29" /><path
         inkscape:connector-curvature="0"
         id="path30"
         style="fill:#ffffff;fill-opacity:1;fill-rule:nonzero;stroke:none"
         d="m 114.75322,526.09424 c 0,-21.263 37.608,-38.5 84,-38.5 46.392,0 84,17.237 84,38.5 0,21.263 -37.608,38.5 -84,38.5 -46.392,0 -84,-17.237 -84,-38.5" /></g><g
       transform="translate(105.39957,58.326544)"
       id="g129"
       style="fill:#ffffff"><path
         inkscape:connector-curvature="0"
         id="path32"
         style="fill:#ffffff;fill-opacity:1;fill-rule:nonzero;stroke:none"
         d="m 119.52822,101.88624 c -4.374,22.499 14.713,45.138 42.633,50.566 27.92,5.43 54.099,-8.408 58.474,-30.907 4.375,-22.498 -14.712,-45.138 -42.632,-50.566 -27.921,-5.43 -54.099,8.408 -58.475,30.907" /><path
         inkscape:connector-curvature="0"
         id="path34"
         style="fill:#ffffff;fill-opacity:1;fill-rule:nonzero;stroke:none"
         d="m 191.23322,187.82424 c 2.161,-11.113 -21.798,-25.123 -53.512,-31.289 -31.715,-6.166 -59.176,-2.157 -61.338,8.956 -2.16,11.115 21.798,25.124 53.513,31.291 31.714,6.166 59.175,2.157 61.337,-8.958" /><path
         inkscape:connector-curvature="0"
         id="path36"
         style="fill:#ffffff;fill-opacity:1;fill-rule:nonzero;stroke:none"
         d="m 111.52122,130.42924 c -2.53,13.011 7.724,25.951 22.903,28.902 15.181,2.952 29.537,-5.202 32.067,-18.214 2.53,-13.011 -7.725,-25.951 -22.904,-28.903 -15.179,-2.951 -29.537,5.204 -32.066,18.215" /><path
         inkscape:connector-curvature="0"
         id="path38"
         style="fill:#ffffff;fill-opacity:1;fill-rule:nonzero;stroke:none"
         d="m 152.32722,142.22424 c -3.584,18.431 -30.662,28.674 -60.478,22.877 -29.818,-5.799 -51.084,-25.441 -47.5,-43.873 3.584,-18.434 30.661,-28.675 60.478,-22.877 29.818,5.797 51.085,25.439 47.5,43.873" /><path
         inkscape:connector-curvature="0"
         id="path40"
         style="fill:#ffffff;fill-opacity:1;fill-rule:nonzero;stroke:none"
         d="m 30.51022,127.92024 c -3.057,15.722 8.529,31.202 25.876,34.575 17.349,3.372 33.89,-6.638 36.948,-22.359 3.057,-15.722 -8.529,-31.202 -25.877,-34.575 -17.348,-3.374 -33.891,6.638 -36.947,22.359" /><path
         inkscape:connector-curvature="0"
         id="path42"
         style="fill:#ffffff;fill-opacity:1;fill-rule:nonzero;stroke:none"
         d="m 269.15322,159.81724 c -4.058,20.872 -44.264,30.614 -89.804,21.76 -45.538,-8.855 -79.165,-32.954 -75.107,-53.826 4.058,-20.872 44.265,-30.614 89.804,-21.759 45.54,8.854 79.165,32.954 75.107,53.825" /></g><g
       transform="translate(787.63723,111.94474)"
       id="g145"
       style="fill:#ffffff"><path
         inkscape:connector-curvature="0"
         id="path44"
         style="fill:#ffffff;fill-opacity:1;fill-rule:nonzero;stroke:none"
         d="m 622.75322,101.09424 c 0,-22.92 -23.057,-41.5 -51.5,-41.5 -28.443,0 -51.5,18.58 -51.5,41.5 0,22.92 23.057,41.5 51.5,41.5 28.443,0 51.5,-18.58 51.5,-41.5" /><path
         inkscape:connector-curvature="0"
         id="path46"
         style="fill:#ffffff;fill-opacity:1;fill-rule:nonzero;stroke:none"
         d="m 557.25322,91.09424 c 0,11.322 26.191,20.5 58.5,20.5 32.309,0 58.5,-9.178 58.5,-20.5 0,-11.322 -26.191,-20.5 -58.5,-20.5 -32.309,0 -58.5,9.178 -58.5,20.5" /><path
         inkscape:connector-curvature="0"
         id="path48"
         style="fill:#ffffff;fill-opacity:1;fill-rule:nonzero;stroke:none"
         d="m 622.75322,101.59424 c 0,-13.255 -12.536,-24 -28,-24 -15.464,0 -28,10.745 -28,24 0,13.255 12.536,24 28,24 15.464,0 28,-10.745 28,-24" /><path
         inkscape:connector-curvature="0"
         id="path50"
         style="fill:#ffffff;fill-opacity:1;fill-rule:nonzero;stroke:none"
         d="m 545.75322,136.59424 c 0,-18.777 24.625,-34 55,-34 30.376,0 55,15.223 55,34 0,18.777 -24.624,34 -55,34 -30.375,0 -55,-15.223 -55,-34" /><path
         inkscape:connector-curvature="0"
         id="path52"
         style="fill:#ffffff;fill-opacity:1;fill-rule:nonzero;stroke:none"
         d="m 649.75322,85.59424 c 0,-16.016 -14.327,-29 -32,-29 -17.673,0 -32,12.984 -32,29 0,16.016 14.327,29 32,29 17.673,0 32,-12.984 32,-29" /><path
         inkscape:connector-curvature="0"
         id="path54"
         style="fill:#ffffff;fill-opacity:1;fill-rule:nonzero;stroke:none"
         d="m 537.75322,134.09424 c 0,-21.263 37.607,-38.5 84,-38.5 46.392,0 84,17.237 84,38.5 0,21.263 -37.608,38.5 -84,38.5 -46.393,0 -84,-17.237 -84,-38.5" /></g><g
       id="g165"
       transform="matrix(0.61011466,0,0,0.61011466,397.57344,-69.384904)"><g
         id="g56"
         transform="translate(91.299225,9.6104447)"><g
           clip-path="url(#clipPath62)"
           id="g58"><g
             id="g65"><path
               d="m 409.175,316.382 c 42.489,97.557 2.233,271.581 -49.015,318.835 -49.001,45.182 -177.62,81.353 -148.059,-20.292 29.561,-101.644 116.423,-307.92 132.791,-319.705 16.366,-11.784 64.283,21.162 64.283,21.162"
               style="fill:#803300;fill-opacity:1;fill-rule:nonzero;stroke:none"
               id="path64"
               inkscape:connector-curvature="0" /><path
               d="m 341.81,211.064 c 4.37,-17.011 -0.906,-29.048 -11.677,-46.853 -10.771,-17.803 -18.501,-15.725 -16.364,-27.48 1.936,-10.655 -18.629,-34.47 -23.782,-30.173 -5.152,4.296 4.96,17.992 -0.509,13.964 -8.212,-6.046 -18.741,-5.19 -16.046,3.627 2.693,8.819 0.48,1.711 -6.619,2.974 -7.101,1.263 -9.638,11.748 -0.074,14.837 5.976,1.931 13.204,10.711 24.583,12.108 7.379,0.907 16.17,6.386 16.881,10.381 1.893,10.65 19.993,22.759 18.443,43.316 -1.66,22.028 15.164,3.299 15.164,3.299"
               style="fill:#d85700;fill-opacity:1;fill-rule:nonzero;stroke:none"
               id="path66"
               inkscape:connector-curvature="0" /><path
               d="m 494,507 c 2,16 25,37 30,72 5,35 -27.499,67.167 -64.499,74.167 -37,7 -72.846,-21.756 -76.501,-53.167 -3.666,-31.5 58,-82 66,-105 2.518,-7.237 2.26,-17.741 -0.611,-29.27 12.215,-6.479 24.28,-10.307 35.963,-11.999 4.217,21.658 8.56,44.565 9.648,53.269"
               style="fill:#10b01c;fill-opacity:1;fill-rule:nonzero;stroke:none"
               id="path68"
               inkscape:connector-curvature="0" /><path
               d="m 475.916,411.167 c 1.368,7.296 4.815,24.575 8.352,42.731 -11.683,1.692 -23.748,5.52 -35.963,11.999 -6.254,-25.11 -24.918,-55.079 -54.389,-66.73 -43,-17 -79.224,-49.06 -114,-136 -2,-5 -17,-26 -11,-52 4.794,-20.774 49.173,-33.877 105.585,-14.845 -10e-4,-0.01 -0.002,-0.02 -0.003,-0.03 14.067,4.78 28.875,11.552 44.002,20.708 44.424,26.888 55.358,83.152 57.381,128.466 0.139,0.067 0.279,0.138 0.418,0.206 1.432,32.191 -1.629,58.85 -0.383,65.495"
               style="fill:#971b1e;fill-opacity:1;fill-rule:nonzero;stroke:none"
               id="path70"
               inkscape:connector-curvature="0" /><path
               d="m 374.998,196.292 c 14.067,4.78 28.875,11.552 44.002,20.708 44.437,26.896 55.365,83.186 57.383,128.505 -42.065,-20.348 -94.044,-72.802 -101.385,-149.213"
               style="fill:#dda883;fill-opacity:1;fill-rule:nonzero;stroke:none"
               id="path72"
               inkscape:connector-curvature="0" /><path
               d="M 404.334,381.029 C 351.921,487.502 168.505,617.254 100.986,605.839 33.468,594.421 -50.959,585.29 39.263,500.833 c 79.29,-74.225 316.288,-180.226 337.732,-178.994 21.443,1.23 27.339,59.19 27.339,59.19"
               style="fill:#aa4400;fill-opacity:1;fill-rule:nonzero;stroke:none"
               id="path74"
               inkscape:connector-curvature="0" /><path
               d="m 334.03,221.341 c -16.051,-33.201 -1.33,-34.456 -33.841,-56.39 -32.509,-21.933 -21.939,-18.827 -35.352,-34.736 -13.414,-15.908 -21.294,-14.991 -23.064,-8.219 -1.771,6.773 2.731,15.391 -6.913,7.773 -8.495,-6.71 -15.009,3.417 -12.772,8.632 3.153,7.353 4.298,7.113 -5.999,10.114 -10.921,3.182 -0.959,20.599 17.765,16.19 18.723,-4.409 10.936,-13.199 29.186,3.974 18.251,17.173 34.284,16.411 52.46,51.946 6.5,12.708 22.195,8.298 18.53,0.716"
               style="fill:#ff6600;fill-opacity:1;fill-rule:nonzero;stroke:none"
               id="path76"
               inkscape:connector-curvature="0" /><path
               d="m 443,605 c -14.818,-4.939 4,-36 11,-30 7,6 -2,33 -11,30"
               style="fill:#231f20;fill-opacity:1;fill-rule:nonzero;stroke:none"
               id="path78"
               inkscape:connector-curvature="0" /><path
               d="m 481,612 c -12.123,1.01 -2,-30 4,-30 6,0 8,29 -4,30"
               style="fill:#231f20;fill-opacity:1;fill-rule:nonzero;stroke:none"
               id="path80"
               inkscape:connector-curvature="0" /><path
               d="m 498.871,573.892 c 30.348,-36.551 60.439,-70.88 24.989,-83.543 -35.449,-12.663 -35.533,-15.824 -59.026,-18.997 -23.493,-3.172 -30.02,60.9 -34.042,76.191 -4.023,15.291 68.079,26.349 68.079,26.349"
               style="fill:#b74900;fill-opacity:1;fill-rule:nonzero;stroke:none"
               id="path82"
               inkscape:connector-curvature="0" /><path
               d="m 450.591,524 c 8.803,-17 -18.863,-44 44.015,-29 62.876,15 36.467,29 23.892,36 -12.574,7 -67.907,-7 -67.907,-7"
               style="fill:#ffffff;fill-opacity:1;fill-rule:nonzero;stroke:none"
               id="path84"
               inkscape:connector-curvature="0" /><path
               d="m 498.871,573.892 c 30.348,-36.551 71.616,-43.023 36.167,-55.685 -35.449,-12.663 -51.255,-12.244 -74.748,-15.417 -23.493,-3.173 -25.476,29.462 -29.498,44.753 -4.023,15.291 68.079,26.349 68.079,26.349"
               style="fill:#ff6600;fill-opacity:1;fill-rule:nonzero;stroke:none"
               id="path86"
               inkscape:connector-curvature="0" /><path
               d="m 468.875,556.625 c 0,0 -0.875,-9.25 2.125,-8.375 3,0.875 -2.125,8.375 -2.125,8.375"
               style="fill:#231f20;fill-opacity:1;fill-rule:nonzero;stroke:none"
               id="path88"
               inkscape:connector-curvature="0" /><path
               d="m 482.75,560.125 c 0,0 0.625,-8.25 2.625,-7.5 2,0.75 -2.625,7.5 -2.625,7.5"
               style="fill:#231f20;fill-opacity:1;fill-rule:nonzero;stroke:none"
               id="path90"
               inkscape:connector-curvature="0" /><path
               d="m 442.801,616.076 -20.554,-27.085 -7.168,5.442 20.552,27.084 z"
               style="fill:#231f20;fill-opacity:1;fill-rule:nonzero;stroke:none"
               id="path92"
               inkscape:connector-curvature="0" /><path
               d="m 500.198,608.309 -29.358,17.149 4.539,7.772 29.358,-17.149 z"
               style="fill:#231f20;fill-opacity:1;fill-rule:nonzero;stroke:none"
               id="path94"
               inkscape:connector-curvature="0" /></g></g></g></g></g></svg>